<svg width="24" height="24" viewBox="0 0 24 24" fill="none" xmlns="http://www.w3.org/2000/svg">
<g clip-path="url(#clip0_3761_6464)">
<path d="M11.75 10.374L18.8398 3.28639C18.93 3.19604 19.0372 3.12434 19.1551 3.07539C19.273 3.02644 19.3994 3.0012 19.527 3.00109C19.6547 3.00099 19.7812 3.02604 19.8991 3.0748C20.0171 3.12356 20.1244 3.19509 20.2147 3.28529C20.3051 3.3755 20.3767 3.48261 20.4257 3.60052C20.4746 3.71843 20.4999 3.84483 20.5 3.9725C20.5001 4.10017 20.4751 4.22661 20.4263 4.3446C20.3775 4.46259 20.306 4.56982 20.2158 4.66016L13.126 11.75L20.2136 18.8398C20.304 18.93 20.3757 19.0372 20.4246 19.1551C20.4736 19.273 20.4988 19.3994 20.4989 19.527C20.499 19.6547 20.474 19.7812 20.4252 19.8991C20.3764 20.0171 20.3049 20.1244 20.2147 20.2147C20.1245 20.3051 20.0174 20.3767 19.8995 20.4257C19.7816 20.4746 19.6552 20.4999 19.5275 20.5C19.3998 20.5001 19.2734 20.4751 19.1554 20.4263C19.0374 20.3775 18.9302 20.306 18.8398 20.2158L11.75 13.126L4.66016 20.2136C4.56996 20.304 4.46285 20.3757 4.34493 20.4246C4.22702 20.4736 4.10062 20.4988 3.97296 20.4989C3.84529 20.499 3.71885 20.474 3.60086 20.4252C3.48287 20.3764 3.37564 20.3049 3.28529 20.2147C3.19494 20.1245 3.12325 20.0174 3.0743 19.8995C3.02535 19.7816 3.0001 19.6552 3 19.5275C2.9999 19.3998 3.02494 19.2734 3.07371 19.1554C3.12247 19.0374 3.194 18.9302 3.2842 18.8398L10.374 11.75L3.28639 4.66016C3.10392 4.47799 3.0013 4.23079 3.00109 3.97296C3.00089 3.71512 3.10312 3.46776 3.28529 3.28529C3.46747 3.10283 3.71466 3.00021 3.9725 3C4.23034 2.9998 4.4777 3.10202 4.66016 3.2842L11.75 10.374Z" fill="#243648"/>
</g>
<defs>
<clipPath id="clip0_3761_6464">
<rect width="24" height="24" fill="white"/>
</clipPath>
</defs>
</svg>
