<svg width="20" height="20" viewBox="0 0 20 20" fill="none" xmlns="http://www.w3.org/2000/svg">
<path d="M1.47126 1.39875C1.56462 1.31953 1.67919 1.26949 1.80075 1.25482C1.92231 1.24015 2.04549 1.26151 2.15501 1.31625L18.405 9.44125C18.5087 9.49321 18.5959 9.57299 18.6568 9.67167C18.7177 9.77035 18.75 9.88403 18.75 10C18.75 10.116 18.7177 10.2296 18.6568 10.3283C18.5959 10.427 18.5087 10.5068 18.405 10.5587L2.15501 18.6837C2.04557 18.7386 1.92241 18.7601 1.80084 18.7456C1.67926 18.7311 1.56463 18.6812 1.47116 18.6022C1.3777 18.5231 1.30952 18.4183 1.27509 18.3008C1.24067 18.1833 1.24151 18.0583 1.27751 17.9412L3.72126 10L1.27751 2.05875C1.24171 1.94184 1.24099 1.81701 1.27543 1.6997C1.30987 1.58238 1.37795 1.47775 1.47126 1.39875ZM4.83626 10.625L2.90251 16.9125L16.7275 10L2.90251 3.0875L4.83626 9.375H11.875C12.0408 9.375 12.1997 9.44085 12.317 9.55806C12.4342 9.67527 12.5 9.83424 12.5 10C12.5 10.1658 12.4342 10.3247 12.317 10.4419C12.1997 10.5592 12.0408 10.625 11.875 10.625H4.83626Z" fill="black"/>
</svg>
