<svg width="20" height="20" viewBox="0 0 20 20" fill="none" xmlns="http://www.w3.org/2000/svg">
<path fill-rule="evenodd" clip-rule="evenodd" d="M13.75 4.58338H17.0833C17.1938 4.58338 17.2998 4.62728 17.378 4.70542C17.4561 4.78356 17.5 4.88954 17.5 5.00005C17.5 5.11056 17.4561 5.21654 17.378 5.29468C17.2998 5.37282 17.1938 5.41672 17.0833 5.41672H15.8333V15.8334C15.8333 16.4964 15.5699 17.1323 15.1011 17.6012C14.6323 18.07 13.9964 18.3334 13.3333 18.3334H6.66667C6.00363 18.3334 5.36774 18.07 4.8989 17.6012C4.43006 17.1323 4.16667 16.4964 4.16667 15.8334V5.41672H2.91667C2.80616 5.41672 2.70018 5.37282 2.62204 5.29468C2.5439 5.21654 2.5 5.11056 2.5 5.00005C2.5 4.88954 2.5439 4.78356 2.62204 4.70542C2.70018 4.62728 2.80616 4.58338 2.91667 4.58338H6.25V4.16672C6.25 3.50368 6.51339 2.86779 6.98223 2.39895C7.45107 1.93011 8.08696 1.66672 8.75 1.66672H11.25C11.913 1.66672 12.5489 1.93011 13.0178 2.39895C13.4866 2.86779 13.75 3.50368 13.75 4.16672V4.58338ZM7.57149 2.98821C7.25893 3.30077 7.08333 3.72469 7.08333 4.16672V4.58338H12.9167V4.16672C12.9167 3.72469 12.7411 3.30077 12.4285 2.98821C12.116 2.67565 11.692 2.50005 11.25 2.50005H8.75C8.30797 2.50005 7.88405 2.67565 7.57149 2.98821ZM14.5118 17.0119C14.8244 16.6993 15 16.2754 15 15.8334V5.41672H5V15.8334C5 16.2754 5.17559 16.6993 5.48816 17.0119C5.80072 17.3245 6.22464 17.5001 6.66667 17.5001H13.3333C13.7754 17.5001 14.1993 17.3245 14.5118 17.0119ZM7.34065 7.94843C7.3912 7.9275 7.44538 7.91672 7.5001 7.91672C7.55482 7.91672 7.609 7.9275 7.65955 7.94843C7.71011 7.96937 7.75604 8.00007 7.79473 8.03876C7.83342 8.07745 7.86411 8.12338 7.88505 8.17393C7.90599 8.22448 7.91677 8.27867 7.91677 8.33338V14.5834C7.91677 14.6939 7.87287 14.7999 7.79473 14.878C7.71659 14.9562 7.61061 15 7.5001 15C7.3896 15 7.28361 14.9562 7.20547 14.878C7.12733 14.7999 7.08344 14.6939 7.08344 14.5834V8.33338C7.08344 8.27867 7.09421 8.22448 7.11515 8.17393C7.13609 8.12338 7.16678 8.07745 7.20547 8.03876C7.24417 8.00007 7.2901 7.96937 7.34065 7.94843ZM9.84065 7.94843C9.8912 7.9275 9.94538 7.91672 10.0001 7.91672C10.0548 7.91672 10.109 7.9275 10.1596 7.94843C10.2101 7.96937 10.256 8.00007 10.2947 8.03876C10.3334 8.07745 10.3641 8.12338 10.3851 8.17393C10.406 8.22448 10.4168 8.27867 10.4168 8.33338V14.5834C10.4168 14.6939 10.3729 14.7999 10.2947 14.878C10.2166 14.9562 10.1106 15 10.0001 15C9.8896 15 9.78361 14.9562 9.70547 14.878C9.62733 14.7999 9.58344 14.6939 9.58344 14.5834V8.33338C9.58344 8.27867 9.59421 8.22448 9.61515 8.17393C9.63609 8.12338 9.66678 8.07745 9.70547 8.03876C9.74417 8.00007 9.7901 7.96937 9.84065 7.94843ZM12.3406 7.94843C12.3912 7.9275 12.4454 7.91672 12.5001 7.91672C12.5548 7.91672 12.609 7.9275 12.6596 7.94843C12.7101 7.96937 12.756 8.00007 12.7947 8.03876C12.8334 8.07745 12.8641 8.12338 12.8851 8.17393C12.906 8.22448 12.9168 8.27867 12.9168 8.33338V14.5834C12.9168 14.6939 12.8729 14.7999 12.7947 14.878C12.7166 14.9562 12.6106 15 12.5001 15C12.3896 15 12.2836 14.9562 12.2055 14.878C12.1273 14.7999 12.0834 14.6939 12.0834 14.5834V8.33338C12.0834 8.27867 12.0942 8.22448 12.1152 8.17393C12.1361 8.12338 12.1668 8.07745 12.2055 8.03876C12.2442 8.00007 12.2901 7.96937 12.3406 7.94843Z" fill="black"/>
<path d="M13.75 4.58338H13.6458V4.68755H13.75V4.58338ZM17.378 4.70542L17.3043 4.77908L17.3043 4.77908L17.378 4.70542ZM17.378 5.29468L17.3043 5.22102L17.3043 5.22102L17.378 5.29468ZM15.8333 5.41672V5.31255H15.7292V5.41672H15.8333ZM15.1011 17.6012L15.0274 17.5275L15.0274 17.5275L15.1011 17.6012ZM4.8989 17.6012L4.97256 17.5275L4.97256 17.5275L4.8989 17.6012ZM4.16667 15.8334L4.0625 15.8334L4.0625 15.8334L4.16667 15.8334ZM4.16667 5.41672H4.27083V5.31255H4.16667V5.41672ZM6.25 4.58338V4.68755H6.35417V4.58338H6.25ZM6.98223 2.39895L7.05589 2.47261L7.05589 2.47261L6.98223 2.39895ZM13.0178 2.39895L13.0914 2.32529L13.0914 2.32529L13.0178 2.39895ZM7.57149 2.98821L7.49783 2.91455L7.49783 2.91455L7.57149 2.98821ZM7.08333 4.58338H6.97917V4.68755H7.08333V4.58338ZM12.9167 4.58338V4.68755H13.0208V4.58338H12.9167ZM12.4285 2.98821L12.5022 2.91455L12.5022 2.91455L12.4285 2.98821ZM8.75 2.50005L8.75 2.39588L8.75 2.39588L8.75 2.50005ZM14.5118 17.0119L14.4382 16.9382L14.4382 16.9382L14.5118 17.0119ZM15 5.41672H15.1042V5.31255H15V5.41672ZM5 5.41672V5.31255H4.89583V5.41672H5ZM5.48816 17.0119L5.56181 16.9382L5.56181 16.9382L5.48816 17.0119ZM7.65955 7.94843L7.69942 7.8522L7.69942 7.8522L7.65955 7.94843ZM7.79473 8.03876L7.72107 8.11241L7.72107 8.11241L7.79473 8.03876ZM7.88505 8.17393L7.78881 8.2138L7.78881 8.2138L7.88505 8.17393ZM7.79473 14.878L7.72107 14.8044L7.72107 14.8044L7.79473 14.878ZM12.7947 8.03876L12.8684 7.9651L12.8684 7.9651L12.7947 8.03876ZM12.8851 8.17393L12.9813 8.13407L12.9813 8.13407L12.8851 8.17393ZM12.1152 8.17393L12.0189 8.13407L12.0189 8.13407L12.1152 8.17393ZM12.2055 8.03876L12.2791 8.11241L12.2791 8.11241L12.2055 8.03876ZM17.0833 4.47922H13.75V4.68755H17.0833V4.47922ZM17.4516 4.63177C17.3539 4.53409 17.2215 4.47922 17.0833 4.47922V4.68755C17.1662 4.68755 17.2457 4.72047 17.3043 4.77908L17.4516 4.63177ZM17.6042 5.00005C17.6042 4.86192 17.5493 4.72944 17.4516 4.63177L17.3043 4.77908C17.3629 4.83769 17.3958 4.91717 17.3958 5.00005H17.6042ZM17.4516 5.36834C17.5493 5.27066 17.6042 5.13818 17.6042 5.00005H17.3958C17.3958 5.08293 17.3629 5.16242 17.3043 5.22102L17.4516 5.36834ZM17.0833 5.52088C17.2215 5.52088 17.3539 5.46601 17.4516 5.36833L17.3043 5.22102C17.2457 5.27963 17.1662 5.31255 17.0833 5.31255V5.52088ZM15.8333 5.52088H17.0833V5.31255H15.8333V5.52088ZM15.9375 15.8334V5.41672H15.7292V15.8334H15.9375ZM15.1748 17.6748C15.6631 17.1864 15.9375 16.5241 15.9375 15.8334H15.7292C15.7292 16.4688 15.4767 17.0782 15.0274 17.5275L15.1748 17.6748ZM13.3333 18.4376C14.024 18.4376 14.6864 18.1632 15.1748 17.6748L15.0274 17.5275C14.5781 17.9768 13.9687 18.2292 13.3333 18.2292V18.4376ZM6.66667 18.4376H13.3333V18.2292H6.66667V18.4376ZM4.82524 17.6748C5.31362 18.1632 5.976 18.4376 6.66667 18.4376V18.2292C6.03125 18.2292 5.42186 17.9768 4.97256 17.5275L4.82524 17.6748ZM4.0625 15.8334C4.0625 16.5241 4.33687 17.1864 4.82524 17.6748L4.97256 17.5275C4.52325 17.0782 4.27083 16.4688 4.27083 15.8334L4.0625 15.8334ZM4.0625 5.41672V15.8334H4.27083V5.41672H4.0625ZM2.91667 5.52088H4.16667V5.31255H2.91667V5.52088ZM2.54838 5.36834C2.64606 5.46601 2.77853 5.52088 2.91667 5.52088V5.31255C2.83379 5.31255 2.7543 5.27963 2.6957 5.22102L2.54838 5.36834ZM2.39583 5.00005C2.39583 5.13818 2.45071 5.27066 2.54838 5.36834L2.6957 5.22102C2.63709 5.16242 2.60417 5.08293 2.60417 5.00005H2.39583ZM2.54838 4.63177C2.45071 4.72944 2.39583 4.86192 2.39583 5.00005H2.60417C2.60417 4.91717 2.63709 4.83769 2.6957 4.77908L2.54838 4.63177ZM2.91667 4.47922C2.77853 4.47922 2.64606 4.53409 2.54838 4.63177L2.6957 4.77908C2.7543 4.72048 2.83379 4.68755 2.91667 4.68755V4.47922ZM6.25 4.47922H2.91667V4.68755H6.25V4.47922ZM6.14583 4.16672V4.58338H6.35417V4.16672H6.14583ZM6.90858 2.32529C6.4202 2.81367 6.14583 3.47605 6.14583 4.16672H6.35417C6.35417 3.5313 6.60658 2.92191 7.05589 2.47261L6.90858 2.32529ZM8.75 1.56255C8.05933 1.56255 7.39695 1.83692 6.90858 2.32529L7.05589 2.47261C7.5052 2.0233 8.11459 1.77088 8.75 1.77088V1.56255ZM11.25 1.56255H8.75V1.77088H11.25V1.56255ZM13.0914 2.32529C12.603 1.83692 11.9407 1.56255 11.25 1.56255V1.77088C11.8854 1.77088 12.4948 2.0233 12.9441 2.47261L13.0914 2.32529ZM13.8542 4.16672C13.8542 3.47605 13.5798 2.81367 13.0914 2.32529L12.9441 2.47261C13.3934 2.92191 13.6458 3.5313 13.6458 4.16672H13.8542ZM13.8542 4.58338V4.16672H13.6458V4.58338H13.8542ZM7.1875 4.16672C7.1875 3.75232 7.35212 3.35489 7.64515 3.06186L7.49783 2.91455C7.16574 3.24665 6.97917 3.69706 6.97917 4.16672H7.1875ZM7.1875 4.58338V4.16672H6.97917V4.58338H7.1875ZM12.9167 4.47922H7.08333V4.68755H12.9167V4.47922ZM12.8125 4.16672V4.58338H13.0208V4.16672H12.8125ZM12.3549 3.06186C12.6479 3.35489 12.8125 3.75232 12.8125 4.16672H13.0208C13.0208 3.69706 12.8343 3.24665 12.5022 2.91455L12.3549 3.06186ZM11.25 2.60422C11.6644 2.60422 12.0618 2.76884 12.3549 3.06186L12.5022 2.91455C12.1701 2.58245 11.7197 2.39588 11.25 2.39588V2.60422ZM8.75 2.60422H11.25V2.39588H8.75V2.60422ZM7.64515 3.06186C7.93817 2.76884 8.3356 2.60422 8.75 2.60422L8.75 2.39588C8.28035 2.39588 7.82993 2.58245 7.49783 2.91455L7.64515 3.06186ZM14.8958 15.8334C14.8958 16.2478 14.7312 16.6452 14.4382 16.9382L14.5855 17.0856C14.9176 16.7535 15.1042 16.303 15.1042 15.8334H14.8958ZM14.8958 5.41672V15.8334H15.1042V5.41672H14.8958ZM5 5.52088H15V5.31255H5V5.52088ZM5.10417 15.8334V5.41672H4.89583V15.8334H5.10417ZM5.56181 16.9382C5.26879 16.6452 5.10417 16.2478 5.10417 15.8334H4.89583C4.89583 16.303 5.0824 16.7535 5.4145 17.0856L5.56181 16.9382ZM6.66667 17.3959C6.25227 17.3959 5.85484 17.2313 5.56181 16.9382L5.4145 17.0856C5.74659 17.4176 6.19701 17.6042 6.66667 17.6042V17.3959ZM13.3333 17.3959H6.66667V17.6042H13.3333V17.3959ZM14.4382 16.9382C14.1452 17.2313 13.7477 17.3959 13.3333 17.3959V17.6042C13.803 17.6042 14.2534 17.4176 14.5855 17.0856L14.4382 16.9382ZM7.5001 7.81255C7.43171 7.81255 7.36398 7.82602 7.30079 7.8522L7.38051 8.04467C7.41843 8.02897 7.45906 8.02088 7.5001 8.02088V7.81255ZM7.69942 7.8522C7.63623 7.82602 7.5685 7.81255 7.5001 7.81255V8.02088C7.54114 8.02088 7.58178 8.02897 7.61969 8.04467L7.69942 7.8522ZM7.86839 7.9651C7.82002 7.91674 7.76261 7.87837 7.69942 7.8522L7.61969 8.04467C7.6576 8.06038 7.69205 8.08339 7.72107 8.11241L7.86839 7.9651ZM7.98129 8.13407C7.95511 8.07088 7.91675 8.01346 7.86839 7.9651L7.72107 8.11241C7.75009 8.14143 7.77311 8.17588 7.78881 8.2138L7.98129 8.13407ZM8.02094 8.33338C8.02094 8.26499 8.00746 8.19726 7.98129 8.13407L7.78881 8.2138C7.80452 8.25171 7.8126 8.29235 7.8126 8.33338H8.02094ZM8.02094 14.5834V8.33338H7.8126V14.5834H8.02094ZM7.86839 14.9517C7.96606 14.854 8.02094 14.7215 8.02094 14.5834H7.8126C7.8126 14.6663 7.77968 14.7457 7.72107 14.8044L7.86839 14.9517ZM7.5001 15.1042C7.63824 15.1042 7.77071 15.0493 7.86839 14.9517L7.72107 14.8044C7.66247 14.863 7.58298 14.8959 7.5001 14.8959V15.1042ZM7.13182 14.9517C7.22949 15.0493 7.36197 15.1042 7.5001 15.1042V14.8959C7.41722 14.8959 7.33774 14.863 7.27913 14.8044L7.13182 14.9517ZM6.97927 14.5834C6.97927 14.7215 7.03414 14.854 7.13182 14.9517L7.27913 14.8044C7.22053 14.7457 7.1876 14.6663 7.1876 14.5834H6.97927ZM6.97927 8.33338V14.5834H7.1876V8.33338H6.97927ZM7.01891 8.13407C6.99274 8.19726 6.97927 8.26499 6.97927 8.33338H7.1876C7.1876 8.29235 7.19568 8.25171 7.21139 8.2138L7.01891 8.13407ZM7.13182 7.9651C7.08345 8.01346 7.04509 8.07088 7.01891 8.13407L7.21139 8.2138C7.22709 8.17588 7.25011 8.14143 7.27913 8.11241L7.13182 7.9651ZM7.30079 7.8522C7.2376 7.87837 7.18018 7.91674 7.13182 7.9651L7.27913 8.11241C7.30815 8.08339 7.3426 8.06038 7.38051 8.04467L7.30079 7.8522ZM10.0001 7.81255C9.93171 7.81255 9.86398 7.82602 9.80079 7.8522L9.88051 8.04467C9.91843 8.02897 9.95906 8.02088 10.0001 8.02088V7.81255ZM10.1994 7.8522C10.1362 7.82602 10.0685 7.81255 10.0001 7.81255V8.02088C10.0411 8.02088 10.0818 8.02897 10.1197 8.04467L10.1994 7.8522ZM10.3684 7.9651C10.32 7.91674 10.2626 7.87837 10.1994 7.8522L10.1197 8.04467C10.1576 8.06038 10.1921 8.08339 10.2211 8.11241L10.3684 7.9651ZM10.4813 8.13407C10.4551 8.07088 10.4168 8.01346 10.3684 7.9651L10.2211 8.11241C10.2501 8.14143 10.2731 8.17588 10.2888 8.2138L10.4813 8.13407ZM10.5209 8.33338C10.5209 8.26499 10.5075 8.19726 10.4813 8.13407L10.2888 8.2138C10.3045 8.25171 10.3126 8.29235 10.3126 8.33338H10.5209ZM10.5209 14.5834V8.33338H10.3126V14.5834H10.5209ZM10.3684 14.9517C10.4661 14.854 10.5209 14.7215 10.5209 14.5834H10.3126C10.3126 14.6663 10.2797 14.7457 10.2211 14.8044L10.3684 14.9517ZM10.0001 15.1042C10.1382 15.1042 10.2707 15.0493 10.3684 14.9517L10.2211 14.8044C10.1625 14.863 10.083 14.8959 10.0001 14.8959V15.1042ZM9.63182 14.9517C9.72949 15.0493 9.86197 15.1042 10.0001 15.1042V14.8959C9.91722 14.8959 9.83774 14.863 9.77913 14.8044L9.63182 14.9517ZM9.47927 14.5834C9.47927 14.7215 9.53414 14.854 9.63182 14.9517L9.77913 14.8044C9.72053 14.7457 9.6876 14.6663 9.6876 14.5834H9.47927ZM9.47927 8.33338V14.5834H9.6876V8.33338H9.47927ZM9.51891 8.13407C9.49274 8.19726 9.47927 8.26499 9.47927 8.33338H9.6876C9.6876 8.29235 9.69568 8.25171 9.71139 8.2138L9.51891 8.13407ZM9.63182 7.9651C9.58345 8.01346 9.54509 8.07088 9.51891 8.13407L9.71139 8.2138C9.72709 8.17588 9.75011 8.14143 9.77913 8.11241L9.63182 7.9651ZM9.80079 7.8522C9.7376 7.87837 9.68018 7.91674 9.63182 7.9651L9.77913 8.11241C9.80815 8.08339 9.8426 8.06038 9.88051 8.04467L9.80079 7.8522ZM12.5001 7.81255C12.4317 7.81255 12.364 7.82602 12.3008 7.8522L12.3805 8.04467C12.4184 8.02897 12.4591 8.02088 12.5001 8.02088V7.81255ZM12.6994 7.8522C12.6362 7.82602 12.5685 7.81255 12.5001 7.81255V8.02088C12.5411 8.02088 12.5818 8.02897 12.6197 8.04467L12.6994 7.8522ZM12.8684 7.9651C12.82 7.91674 12.7626 7.87837 12.6994 7.8522L12.6197 8.04467C12.6576 8.06038 12.6921 8.08339 12.7211 8.11241L12.8684 7.9651ZM12.9813 8.13407C12.9551 8.07088 12.9168 8.01346 12.8684 7.9651L12.7211 8.11241C12.7501 8.14143 12.7731 8.17588 12.7888 8.2138L12.9813 8.13407ZM13.0209 8.33338C13.0209 8.26499 13.0075 8.19726 12.9813 8.13407L12.7888 8.21379C12.8045 8.25171 12.8126 8.29235 12.8126 8.33338H13.0209ZM13.0209 14.5834V8.33338H12.8126V14.5834H13.0209ZM12.8684 14.9517C12.9661 14.854 13.0209 14.7215 13.0209 14.5834H12.8126C12.8126 14.6663 12.7797 14.7457 12.7211 14.8044L12.8684 14.9517ZM12.5001 15.1042C12.6382 15.1042 12.7707 15.0493 12.8684 14.9517L12.7211 14.8044C12.6625 14.863 12.583 14.8959 12.5001 14.8959V15.1042ZM12.1318 14.9517C12.2295 15.0493 12.362 15.1042 12.5001 15.1042V14.8959C12.4172 14.8959 12.3377 14.863 12.2791 14.8044L12.1318 14.9517ZM11.9793 14.5834C11.9793 14.7215 12.0341 14.854 12.1318 14.9517L12.2791 14.8044C12.2205 14.7457 12.1876 14.6663 12.1876 14.5834H11.9793ZM11.9793 8.33338V14.5834H12.1876V8.33338H11.9793ZM12.0189 8.13407C11.9927 8.19726 11.9793 8.26499 11.9793 8.33338H12.1876C12.1876 8.29235 12.1957 8.25171 12.2114 8.21379L12.0189 8.13407ZM12.1318 7.9651C12.0835 8.01346 12.0451 8.07088 12.0189 8.13407L12.2114 8.2138C12.2271 8.17588 12.2501 8.14143 12.2791 8.11241L12.1318 7.9651ZM12.3008 7.8522C12.2376 7.87837 12.1802 7.91674 12.1318 7.9651L12.2791 8.11241C12.3081 8.08339 12.3426 8.06038 12.3805 8.04467L12.3008 7.8522Z" fill="black"/>
</svg>
