<svg width="20" height="20" viewBox="0 0 20 20" fill="none" xmlns="http://www.w3.org/2000/svg">
<g clip-path="url(#clip0_3422_9298)">
<rect width="20" height="20" fill="white"/>
<g clip-path="url(#clip1_3422_9298)">
<path d="M15.1437 2.85156H15.324C15.5544 2.86178 15.7847 2.88221 16.0151 2.89243C16.8664 2.94351 17.7078 3.0661 18.5491 3.22956C18.8496 3.29086 18.9798 3.45431 18.9798 3.7608V4.47593C18.9798 4.76198 19.14 4.93565 19.4305 4.94587C19.5106 4.94587 19.5907 4.93565 19.6709 4.94587C19.751 4.95609 19.8311 4.9663 19.9012 4.99695C20.1015 5.09911 20.1616 5.27279 20.1616 5.49754V15.1007C20.1616 15.3255 20.0915 15.5094 19.8812 15.6013C19.7911 15.6422 19.6909 15.6524 19.6008 15.6524H11.6682C11.4479 15.6524 11.3678 15.7239 11.3377 15.9486C11.3077 16.1428 11.2275 16.2245 11.0272 16.2245H9.28446C9.08414 16.2245 8.994 16.1428 8.97397 15.9384C8.96395 15.8158 8.91387 15.7137 8.79368 15.6728C8.73359 15.6524 8.67349 15.6524 8.6134 15.6524H0.590727C0.330315 15.6217 0.170062 15.4583 0.15003 15.1927C0.140015 15.1211 0.140015 15.0496 0.140015 14.9883V5.39538C0.15003 5.38516 0.15003 5.37495 0.160046 5.35452C0.220141 5.0889 0.380394 4.95609 0.640806 4.94587H0.851138C1.17164 4.94587 1.3319 4.78241 1.3319 4.4555V3.73015C1.3319 3.46453 1.47212 3.29086 1.73253 3.23978C2.75414 3.04567 3.78577 2.89243 4.82742 2.88221C4.88751 2.88221 4.94761 2.87199 4.99769 2.86178H5.11788C5.17797 2.87199 5.23807 2.87199 5.29816 2.88221C5.79895 2.88221 6.28973 2.92308 6.7805 3.0048C7.43153 3.11718 8.07254 3.29086 8.67349 3.56669C9.12421 3.77101 9.52484 4.03663 9.93549 4.31247C10.0757 4.41463 10.2159 4.41463 10.3662 4.31247C10.5164 4.21031 10.6666 4.10815 10.8169 4.0162C11.4379 3.60756 12.1089 3.33172 12.82 3.14783C13.5212 2.96394 14.2323 2.88221 14.9534 2.87199C15.0235 2.86178 15.0836 2.85156 15.1437 2.85156ZM1.93285 8.74627V13.3027C1.93285 13.6602 2.15319 13.8543 2.50375 13.8033C2.9144 13.742 3.31503 13.6909 3.72568 13.6398C4.77734 13.5274 5.81898 13.5376 6.86063 13.7215C7.57175 13.8441 8.25283 14.0484 8.90386 14.3856C9.09416 14.4877 9.28446 14.6001 9.47476 14.7023C9.66506 14.8044 9.83533 14.7125 9.85536 14.4877V14.3651C9.85536 11.4535 9.85536 8.54195 9.84535 5.63035V5.50776C9.83533 5.22171 9.71514 4.98673 9.48478 4.80284C9.12421 4.51679 8.72357 4.28182 8.31293 4.09793C7.36142 3.66885 6.35984 3.47475 5.32821 3.43388C4.34666 3.39302 3.37512 3.47475 2.41361 3.64842C2.07307 3.70972 1.94286 3.87318 1.94286 4.22052C1.93285 5.74273 1.93285 7.2445 1.93285 8.74627ZM18.3788 8.75649V7.04018V4.20009C18.3788 3.90382 18.2186 3.70972 17.9481 3.66885C17.5275 3.60756 17.1068 3.54626 16.6862 3.5054C15.7346 3.40323 14.7831 3.41345 13.8417 3.56669C12.77 3.74037 11.7884 4.10815 10.897 4.75176C10.5965 4.9663 10.4563 5.24214 10.4563 5.62014V14.3958C10.4563 14.4469 10.4563 14.4877 10.4663 14.5388C10.4864 14.6818 10.6166 14.784 10.7568 14.7431C10.8069 14.7329 10.8469 14.7023 10.887 14.6818C11.3778 14.3856 11.8886 14.1506 12.4394 13.9769C13.0604 13.7828 13.7014 13.65 14.3525 13.6194C14.8933 13.5887 15.4442 13.5785 15.985 13.6092C16.596 13.65 17.207 13.742 17.8179 13.8135C17.9882 13.8339 18.1485 13.8135 18.2687 13.6705C18.3588 13.5683 18.3788 13.4457 18.3788 13.3129V8.75649Z" fill="#1E64DDFF"/>
</g>
</g>
<defs>
<clipPath id="clip0_3422_9298">
<rect width="20" height="20" fill="white"/>
</clipPath>
<clipPath id="clip1_3422_9298">
<rect width="20.0316" height="20.4323" fill="white" transform="translate(0.120483 -0.693359)"/>
</clipPath>
</defs>
</svg>
