<svg width="20" height="20" viewBox="0 0 20 20" fill="none" xmlns="http://www.w3.org/2000/svg">
<path d="M18.4336 9.45529C18.0918 9.18771 17.5977 9.24631 17.3281 9.5881C17.2168 9.73068 17.1621 9.8967 17.1602 10.0647H17.1523C17.1406 11.594 16.6426 13.1311 15.6289 14.426C13.1895 17.5354 8.67578 18.0803 5.56641 15.6428C4.94726 15.1565 4.42969 14.5881 4.01758 13.9651H5.52344C5.96094 13.9651 6.31836 13.6076 6.31836 13.1701V13.1115C6.31836 12.674 5.96094 12.3166 5.52344 12.3166H2.06055C1.62305 12.3166 1.26562 12.674 1.26562 13.1115V16.5744C1.26562 17.0119 1.62305 17.3694 2.06055 17.3694H2.11914C2.55664 17.3694 2.91406 17.0119 2.91406 16.5744V15.1467C3.38672 15.7971 3.94922 16.3791 4.59375 16.885C5.52344 17.6135 6.5664 18.1389 7.69726 18.4455C8.78906 18.7424 9.91406 18.8225 11.041 18.6858C12.168 18.549 13.2422 18.2033 14.2305 17.6545C15.2559 17.0881 16.1445 16.3283 16.873 15.4006C17.6016 14.4709 18.1269 13.4279 18.4336 12.2971C18.6328 11.5627 18.7344 10.8127 18.7383 10.0588H18.7363C18.7305 9.83224 18.6289 9.60763 18.4336 9.45529ZM17.9434 2.64084H17.8848C17.4473 2.64084 17.0898 2.99826 17.0898 3.43576V4.86349C16.6172 4.2131 16.0547 3.63107 15.4102 3.12521C14.4805 2.3967 13.4375 1.8713 12.3066 1.56466C11.2148 1.26779 10.0898 1.18771 8.96289 1.32443C7.83594 1.46115 6.76172 1.80685 5.77344 2.35568C4.74805 2.92209 3.85937 3.68185 3.13086 4.60959C2.40234 5.53732 1.87695 6.58224 1.57031 7.71115C1.37109 8.44552 1.26953 9.19552 1.26562 9.94943H1.26758C1.27148 10.1779 1.375 10.4026 1.56836 10.5529C1.91016 10.8205 2.4043 10.7619 2.67383 10.4201C2.78516 10.2776 2.83984 10.1115 2.8418 9.94357H2.84961C2.86133 8.41427 3.35937 6.87716 4.37305 5.58224C6.8125 2.47287 11.3262 1.92795 14.4355 4.36545C15.0547 4.85177 15.5723 5.42013 15.9844 6.04318H14.4785C14.041 6.04318 13.6836 6.4006 13.6836 6.8381V6.8967C13.6836 7.3342 14.041 7.69162 14.4785 7.69162H17.9414C18.3789 7.69162 18.7363 7.3342 18.7363 6.8967V3.43381C18.7383 2.99826 18.3809 2.64084 17.9434 2.64084Z" fill="#1E64DDFF"/>
</svg>
