<svg width="20" height="20" viewBox="0 0 20 20" fill="none" xmlns="http://www.w3.org/2000/svg">
<rect width="20" height="20" fill="white"/>
<path d="M5.64368 6.67433H8.03831H10.433M5.64368 9.31801H10.433M5.64368 12.0383H10.433M11.4674 6.67433H13.6513M11.4674 9.31801H13.6513M11.4674 12.0383H13.6513M5.78004 16.1538L7.65176 17.5389C7.6652 17.5488 7.68352 17.5489 7.69705 17.5391L9.60585 16.1543C9.61927 16.1445 9.63743 16.1445 9.65085 16.1543L11.5605 17.5397C11.5736 17.5492 11.5913 17.5494 11.6047 17.5403L13.6299 16.1526C13.6428 16.1438 13.6599 16.1437 13.6729 16.1524L16.2737 17.8986C16.2991 17.9157 16.3333 17.8975 16.3333 17.8668V2.03831C16.3333 2.01715 16.3162 2 16.295 2H3.03831C3.01715 2 3 2.01715 3 2.03831V17.8679C3 17.8984 3.03377 17.9167 3.05926 17.9L5.73631 16.1525C5.74972 16.1437 5.76716 16.1443 5.78004 16.1538Z" stroke="#1E64DDFF" stroke-width="1.08333"/>
</svg>
